<svg xmlns="http://www.w3.org/2000/svg" version="1.1" xmlns:xlink="http://www.w3.org/1999/xlink" xmlns:svgjs="http://svgjs.dev/svgjs" width="2000" height="484" viewBox="0 0 2000 484"><g transform="matrix(1,0,0,1,-1.2121212121212466,-1.965090407614582)"><svg viewBox="0 0 396 96" data-background-color="#ffffff" preserveAspectRatio="xMidYMid meet" height="484" width="2000" xmlns="http://www.w3.org/2000/svg" xmlns:xlink="http://www.w3.org/1999/xlink"><g id="tight-bounds" transform="matrix(1,0,0,1,0.2400000000000091,0.3897699982045424)"><svg viewBox="0 0 395.52 95.22046000359089" height="95.22046000359089" width="395.52"><g><svg viewBox="0 0 578.4276929990842 139.25503389509672" height="95.22046000359089" width="395.52"><g><rect width="6.256144002011908" height="101.26722797725918" x="411.8973403194029" y="18.993902958918767" fill="#556970" opacity="1" stroke-width="0" stroke="transparent" fill-opacity="1" class="rect-yte-0" data-fill-palette-color="primary" rx="1%" id="yte-0" data-palette-color="#556970"></rect></g><g transform="matrix(1,0,0,1,0,19.245811486225378)"><svg viewBox="0 0 395.52 100.76341092264596" height="100.76341092264596" width="395.52"><g id="textblocktransform"><svg viewBox="0 0 395.52 100.76341092264596" height="100.76341092264596" width="395.52" id="textblock"><g><svg viewBox="0 0 395.52 69.37316931582583" height="69.37316931582583" width="395.52"><g transform="matrix(1,0,0,1,0,0)"><svg width="395.52" viewBox="0 -27.65 161.36391304347825 28.2" height="69.37316931582583" data-palette-color="#556970"><g class="wordmark-text-0" data-fill-palette-color="primary" id="text-0"><path d="M4.95-20.75L4.95-20.75Q6.35-20.75 7.38-20.85 8.4-20.95 9.85-21L9.85-21Q9.95-20.8 9.93-20.25 9.9-19.7 9.75-19.6L9.75-19.6Q9.55-19.6 8.95-19.53 8.35-19.45 7.83-19.23 7.3-19 7.3-18.45L7.3-18.45Q7.3-18.35 7.55-17.7L7.55-17.7Q8-16.55 9.25-13.55 10.5-10.55 12.55-5.7L12.55-5.7Q14.45-10.45 15.48-13.03 16.5-15.6 16.5-15.95L16.5-15.95Q16.5-16.2 16.18-17.07 15.85-17.95 15.35-18.65L15.35-18.65Q14.95-19.25 14.3-19.43 13.65-19.6 13.2-19.6L13.2-19.6Q13-19.7 13-20.25 13-20.8 13.2-21L13.2-21Q14.2-20.95 14.83-20.9 15.45-20.85 16.05-20.8 16.65-20.75 17.65-20.75L17.65-20.75Q19.05-20.75 20.15-20.85 21.25-20.95 22.7-21L22.7-21Q22.8-20.8 22.8-20.28 22.8-19.75 22.65-19.6L22.65-19.6Q20.25-19.6 20.25-18L20.25-18Q20.25-17.75 20.35-17.5L20.35-17.5Q20.65-16.55 21.73-13.8 22.8-11.05 24.8-5.85L24.8-5.85Q26.25-9.4 27.43-12.33 28.6-15.25 29.1-16.8L29.1-16.8Q29.25-17.2 29.3-17.5 29.35-17.8 29.35-17.95L29.35-17.95Q29.35-18.65 28.85-18.98 28.35-19.3 27.68-19.43 27-19.55 26.45-19.6L26.45-19.6Q26.3-19.7 26.28-20.25 26.25-20.8 26.45-21L26.45-21Q27.45-20.95 28-20.9 28.55-20.85 29.13-20.8 29.7-20.75 30.7-20.75L30.7-20.75Q32.1-20.75 32.9-20.85 33.7-20.95 35.15-21L35.15-21Q35.2-20.9 35.23-20.35 35.25-19.8 35-19.6L35-19.6Q34.8-19.6 34.13-19.45 33.45-19.3 32.73-18.93 32-18.55 31.7-17.8L31.7-17.8Q30.35-14.4 29.28-11.73 28.2-9.05 27.13-6.38 26.05-3.7 24.6-0.3L24.6-0.3Q24.5 0 24.18 0.28 23.85 0.55 23.6 0.55L23.6 0.55Q23.1 0.55 23 0.35L23 0.35 17.6-13.75 12.3-0.4Q12.25-0.3 11.88 0.13 11.5 0.55 11.1 0.55L11.1 0.55Q10.75 0.55 10.65 0.35L10.65 0.35Q9.5-2.5 8.58-4.78 7.65-7.05 6.78-9.18 5.9-11.3 4.93-13.53 3.95-15.75 2.75-18.5L2.75-18.5Q2.4-19.3 1.48-19.45 0.55-19.6 0.1-19.6L0.1-19.6Q0-19.85 0-20.33 0-20.8 0.1-21L0.1-21Q1.6-20.95 2.53-20.85 3.45-20.75 4.95-20.75ZM46.95-21.3L46.95-21.3Q48.35-21.3 49.57-20.4 50.8-19.5 51.55-18 52.3-16.5 52.3-14.6L52.3-14.6 52.3-4.55Q52.3-3.6 52.65-2.93 53-2.25 53.8-2.25L53.8-2.25Q54.5-2.25 54.9-2.55 55.3-2.85 55.4-2.9L55.4-2.9Q55.5-2.9 55.55-2.75 55.6-2.6 55.6-2.5L55.6-2.5Q55.6-1.95 55.35-1.55L55.35-1.55Q55.05-1.3 54.37-0.85 53.7-0.4 52.97-0.05 52.25 0.3 51.7 0.3L51.7 0.3Q50.65 0.3 49.82-0.75 49-1.8 48.75-2.9L48.75-2.9Q48.55-2.7 47.82-2.15 47.1-1.6 46.15-1.03 45.2-0.45 44.27-0.03 43.35 0.4 42.7 0.4L42.7 0.4Q40.3 0.4 38.65-1.23 37-2.85 37-5.2L37-5.2Q37-6.7 37.82-7.78 38.65-8.85 39.45-9.15L39.45-9.15Q40.85-9.65 42.57-10.23 44.3-10.8 45.8-11.35 47.3-11.9 48-12.2L48-12.2Q48.4-12.35 48.5-12.58 48.6-12.8 48.6-13.45L48.6-13.45 48.6-14.75Q48.6-15.85 48.05-16.93 47.5-18 46.55-18.73 45.6-19.45 44.4-19.45L44.4-19.45Q43.15-19.45 42.55-18.65 41.95-17.85 41.7-16.4L41.7-16.4Q41.25-14.05 39.4-14.05L39.4-14.05Q38.6-14.05 38.17-14.7 37.75-15.35 37.75-16.1L37.75-16.1Q37.75-16.25 37.85-16.68 37.95-17.1 38.1-17.3L38.1-17.3Q38.85-18 40.25-18.95 41.65-19.9 43.42-20.6 45.2-21.3 46.95-21.3ZM44.35-2.25L44.35-2.25Q45.2-2.25 46.2-2.65 47.2-3.05 47.9-3.53 48.6-4 48.6-4.25L48.6-4.25 48.6-10.9Q47.65-10.6 46.2-10.15 44.75-9.7 44.05-9.45L44.05-9.45Q42.75-8.95 41.9-8 41.05-7.05 41.05-5.65L41.05-5.65Q41.05-4.3 42-3.28 42.95-2.25 44.35-2.25ZM64-27.5L64-21.1 70.3-21.1Q70.55-21.1 70.55-20.55L70.55-20.55Q70.55-19.8 69.85-19.1L69.85-19.1 64-19.1 64-6.3Q64-2.3 67.25-2.3L67.25-2.3Q68.35-2.3 69.25-2.75 70.15-3.2 70.4-3.4L70.4-3.4Q70.55-3.35 70.55-3.1L70.55-3.1Q70.55-2.55 70.35-2.35L70.35-2.35Q70-1.95 69.27-1.3 68.55-0.65 67.55-0.15 66.55 0.35 65.35 0.35L65.35 0.35Q64.1 0.35 62.92-0.1 61.75-0.55 61-1.7 60.25-2.85 60.25-4.95L60.25-4.95 60.25-19.1 57.4-19.1Q57.3-19.1 57.25-19.28 57.2-19.45 57.2-19.55L57.2-19.55Q57.2-19.65 57.5-20.03 57.8-20.4 58.12-20.75 58.45-21.1 58.45-21.1L58.45-21.1 60.25-21.1 60.25-24.15Q60.75-24.7 61.42-25.43 62.1-26.15 62.65-26.78 63.2-27.4 63.25-27.45L63.25-27.45Q63.45-27.65 63.72-27.65 64-27.65 64-27.5L64-27.5ZM76.74-12.1L76.74-12.1Q76.69-9 77.79-6.9 78.89-4.8 80.74-3.78 82.59-2.75 84.74-2.75L84.74-2.75Q86.09-2.75 87.19-3.23 88.29-3.7 89.04-4.33 89.79-4.95 90.09-5.3L90.09-5.3Q90.14-5.3 90.32-5.13 90.49-4.95 90.49-4.65L90.49-4.65Q90.49-4.25 90.19-3.75L90.19-3.75Q89.74-3.05 88.79-2.08 87.84-1.1 86.39-0.35 84.94 0.4 83.04 0.4L83.04 0.4Q80.19 0.4 77.99-0.95 75.79-2.3 74.54-4.6 73.29-6.9 73.29-9.75L73.29-9.75Q73.29-12.2 74.17-14.33 75.04-16.45 76.47-18.03 77.89-19.6 79.59-20.5 81.29-21.4 82.89-21.4L82.89-21.4Q85.09-21.4 86.52-20.65 87.94-19.9 88.77-18.8 89.59-17.7 89.92-16.6 90.24-15.5 90.24-14.75L90.24-14.75Q90.24-13.7 89.99-13.1 89.74-12.5 89.04-12.45L89.04-12.45Q88.59-12.4 87.27-12.38 85.94-12.35 84.24-12.3 82.54-12.25 80.89-12.2 79.24-12.15 78.09-12.13 76.94-12.1 76.74-12.1ZM76.99-13.9L76.99-13.9 84.94-13.9Q85.39-13.9 85.72-14.15 86.04-14.4 86.09-15.05L86.09-15.05Q86.14-15.65 85.74-16.75 85.34-17.85 84.47-18.75 83.59-19.65 82.09-19.65L82.09-19.65Q80.54-19.65 79.54-18.78 78.54-17.9 77.97-16.78 77.39-15.65 77.17-14.78 76.94-13.9 76.99-13.9ZM107.09-21.35L107.09-21.35Q108.04-21.35 108.89-20.93 109.74-20.5 110.09-19.9L110.09-19.9Q110.19-19.7 110.24-19.35 110.29-19 110.29-18.6L110.29-18.6Q110.29-17.25 109.67-16.65 109.04-16.05 108.64-16.05L108.64-16.05Q108.14-16.05 107.69-16.4 107.24-16.75 106.84-17L106.84-17Q106.49-17.25 106.12-17.43 105.74-17.6 105.04-17.6L105.04-17.6Q103.99-17.6 103.12-16.73 102.24-15.85 101.69-14.8 101.14-13.75 101.14-13.2L101.14-13.2 101.14-5.65Q101.14-4.55 101.17-3.6 101.19-2.65 101.39-2.05L101.39-2.05Q101.49-1.8 102.39-1.6 103.29-1.4 104.29-1.33 105.29-1.25 105.59-1.25L105.59-1.25Q105.74-1.05 105.77-0.55 105.79-0.05 105.59 0.15L105.59 0.15Q104.09 0.05 102.54-0.03 100.99-0.1 99.54-0.1L99.54-0.1Q98.14-0.1 96.84-0.03 95.54 0.05 94.04 0.15L94.04 0.15Q93.84-0.05 93.87-0.55 93.89-1.05 94.04-1.25L94.04-1.25Q94.34-1.25 95.07-1.33 95.79-1.4 96.44-1.6 97.09-1.8 97.14-2.05L97.14-2.05Q97.34-2.65 97.37-3.6 97.39-4.55 97.39-5.65L97.39-5.65 97.39-14.75Q97.39-15.25 97.37-16.05 97.34-16.85 97.14-17.3L97.14-17.3Q96.99-17.75 96.29-17.93 95.59-18.1 94.89-18.13 94.19-18.15 93.99-18.15L93.99-18.15Q93.94-18.25 93.89-18.75 93.84-19.25 93.99-19.45L93.99-19.45Q95.89-19.7 97.69-20.2 99.49-20.7 100.94-21.5L100.94-21.5Q101.14-21.5 101.32-21.2 101.49-20.9 101.49-20.7L101.49-20.7Q101.49-20.55 101.39-19.55 101.29-18.55 101.22-17.53 101.14-16.5 101.14-16.2L101.14-16.2Q101.14-16.05 101.22-16.05 101.29-16.05 101.34-16.1L101.34-16.1Q101.84-17.15 102.77-18.38 103.69-19.6 104.84-20.48 105.99-21.35 107.09-21.35ZM123.39-21.45L123.39-21.45Q126.64-21.45 128.96-20.05 131.29-18.65 132.56-16.25 133.84-13.85 133.84-10.8L133.84-10.8Q133.84-7.65 132.49-5.13 131.14-2.6 128.79-1.13 126.44 0.35 123.49 0.35L123.49 0.35Q120.29 0.35 117.91-1.07 115.54-2.5 114.26-4.93 112.99-7.35 112.99-10.4L112.99-10.4Q112.99-13.55 114.36-16.05 115.74-18.55 118.09-20 120.44-21.45 123.39-21.45ZM122.84-19.8L122.84-19.8Q120.79-19.8 119.54-18.57 118.29-17.35 117.74-15.43 117.19-13.5 117.19-11.4L117.19-11.4Q117.19-9.05 117.96-6.7 118.74-4.35 120.26-2.8 121.79-1.25 123.99-1.25L123.99-1.25Q126.09-1.25 127.31-2.48 128.54-3.7 129.09-5.65 129.64-7.6 129.64-9.65L129.64-9.65Q129.64-12.05 128.84-14.38 128.04-16.7 126.54-18.25 125.04-19.8 122.84-19.8ZM151.59-21.4L151.59-21.4Q154.24-21.4 155.59-20.3 156.94-19.2 157.41-16.9 157.89-14.6 157.89-11.05L157.89-11.05 157.89-5.65Q157.89-4.55 157.91-3.6 157.94-2.65 158.14-2.05L158.14-2.05Q158.24-1.8 158.86-1.6 159.49-1.4 160.19-1.33 160.89-1.25 161.19-1.25L161.19-1.25Q161.34-1.05 161.36-0.55 161.39-0.05 161.19 0.15L161.19 0.15Q159.69 0.05 158.56-0.03 157.44-0.1 155.99-0.1L155.99-0.1Q154.59-0.1 153.44-0.03 152.29 0.05 150.79 0.15L150.79 0.15Q150.59-0.05 150.61-0.55 150.64-1.05 150.79-1.25L150.79-1.25Q151.09-1.25 151.81-1.33 152.54-1.4 153.19-1.6 153.84-1.8 153.89-2.05L153.89-2.05Q154.09-2.65 154.11-3.6 154.14-4.55 154.14-5.65L154.14-5.65 154.14-10.55Q154.14-13.6 153.74-15.33 153.34-17.05 152.29-17.8 151.24-18.55 149.34-18.55L149.34-18.55Q148.44-18.55 147.36-17.98 146.29-17.4 145.49-16.75 144.69-16.1 144.69-15.85L144.69-15.85 144.69-5.65Q144.69-4.55 144.71-3.6 144.74-2.65 144.94-2.05L144.94-2.05Q145.04-1.8 145.66-1.6 146.29-1.4 146.99-1.33 147.69-1.25 147.99-1.25L147.99-1.25Q148.14-1.05 148.16-0.55 148.19-0.05 147.99 0.15L147.99 0.15Q146.49 0.05 145.36-0.03 144.24-0.1 142.79-0.1L142.79-0.1Q141.39-0.1 140.24-0.03 139.09 0.05 137.59 0.15L137.59 0.15Q137.39-0.05 137.41-0.55 137.44-1.05 137.59-1.25L137.59-1.25Q137.89-1.25 138.61-1.33 139.34-1.4 139.99-1.6 140.64-1.8 140.69-2.05L140.69-2.05Q140.89-2.65 140.91-3.6 140.94-4.55 140.94-5.65L140.94-5.65 140.94-14.55Q140.94-15.05 140.91-15.95 140.89-16.85 140.69-17.3L140.69-17.3Q140.54-17.75 139.84-17.93 139.14-18.1 138.44-18.13 137.74-18.15 137.54-18.15L137.54-18.15Q137.49-18.25 137.44-18.75 137.39-19.25 137.54-19.45L137.54-19.45Q139.44-19.7 141.24-20.2 143.04-20.7 144.49-21.5L144.49-21.5Q144.69-21.5 144.86-21.2 145.04-20.9 145.04-20.7L145.04-20.7Q145.04-20.55 144.96-19.93 144.89-19.3 144.81-18.7 144.74-18.1 144.74-17.9L144.74-17.9Q144.74-17.7 144.84-17.7L144.84-17.7Q144.89-17.7 144.99-17.8L144.99-17.8Q145.49-18.35 146.61-19.2 147.74-20.05 149.09-20.73 150.44-21.4 151.59-21.4Z" fill="#556970" data-fill-palette-color="primary"></path></g></svg></g></svg></g><g transform="matrix(1,0,0,1,163.310208,85.75050963522874)"><svg viewBox="0 0 232.209792 15.01290128741722" height="15.01290128741722" width="232.209792"><g transform="matrix(1,0,0,1,0,0)"><svg width="232.209792" viewBox="-8.2 -33.3 603.94 39.05" height="15.01290128741722" data-palette-color="#556970"><path d="M18.8-0.85L18.65 0.2Q16.25 0 13.6 0 10.95 0 9.4 0.2L9.4 0.2 9.2-0.5Q9.8-0.7 10.35-1.13 10.9-1.55 10.9-2.05L10.9-2.05Q10.9-5.7 4.25-26.45L4.25-26.45Q3.65-28.35 3.05-29.8L3.05-29.8Q-2.8-29.8-4.45-28.2L-4.45-28.2Q-4.8-27.5-4.8-26-4.8-24.5-4.3-23.95L-4.3-23.95-4.35-23.6Q-5.6-22.85-6.85-21.5L-6.85-21.5Q-7.45-21.55-7.83-22-8.2-22.45-8.2-23.05L-8.2-23.05Q-8.2-25.5-5.25-28.9-2.3-32.3 0.25-33.2L0.25-33.2Q0.65-33.2 3.85-32.88 7.05-32.55 8.95-32.55L8.95-32.55 14.8-32.55Q25.6-32.55 30.45-33.05L30.45-33.05 30.65-31.8Q28.45-31.1 25.85-30.65L25.85-30.65Q26.1-28.9 26.1-27.48 26.1-26.05 25.7-23.9L25.7-23.9Q27.6-15.4 31.7-3.45L31.7-3.45Q35.4-12.8 36.58-17.63 37.75-22.45 37.75-25.9L37.75-25.9Q37.75-30.6 35.25-32.05L35.25-32.05 35.45-32.75Q37-32.55 40.43-32.55 43.85-32.55 46.8-32.95L46.8-32.95 47-31.7Q44.75-31 42.2-30.65L42.2-30.65Q42.45-28.9 42.45-27.75L42.45-27.75Q42.45-23.55 40.38-18.1 38.3-12.65 32.85-1.7L32.85-1.7Q33.7-1.25 35.15-0.85L35.15-0.85 35 0.2Q32.6 0 29.95 0 27.3 0 25.75 0.2L25.75 0.2 25.55-0.5Q26.15-0.7 26.7-1.13 27.25-1.55 27.25-2.05L27.25-2.05Q27.25-5 23.7-17L23.7-17 23.5-17Q21.15-10.95 16.5-1.7L16.5-1.7Q17.35-1.25 18.8-0.85L18.8-0.85ZM15.35-3.45Q19.05-12.8 20.23-17.63 21.4-22.45 21.4-25.88 21.4-29.3 20.15-30.33 18.9-31.35 15.03-31.35 11.15-31.35 8.2-30.45L8.2-30.45Q8.65-26.35 10.78-18.3 12.9-10.25 15.35-3.45L15.35-3.45ZM50.55-25.3L50.7-26.6Q55.4-26.05 60.2-26.05 65-26.05 69.65-26.6L69.65-26.6 69.85-25.3Q68.35-24.7 66.75-24.4L66.75-24.4Q66.2-20.3 66.2-13 66.2-5.7 66.75-1.6L66.75-1.6Q67.75-1.45 70.45-0.85L70.45-0.85 70.25 0.4Q67.85 0 64.1 0 60.35 0 58.35 0.4L58.35 0.4 58.15-0.9Q59.85-1.45 62-1.7L62-1.7Q62.3-4.6 62.45-9.75L62.45-9.75Q60.1-10 57.75-10 55.4-10 53.65-9.75L53.65-9.75Q52.65-5.65 52.65-4.05L52.65-4.05Q52.65-1.6 54.4-0.6L54.4-0.6 54.2 0.25Q53.05 0 49.85 0 46.65 0 44.8 0.4L44.8 0.4 44.6-0.9Q45.8-1.35 47.9-1.7L47.9-1.7 54.4-24.5Q52.2-24.85 50.55-25.3L50.55-25.3ZM57-24.05L54.05-12.1Q56-11.8 58.37-11.8 60.75-11.8 62.45-12.1L62.45-12.1Q62.45-21.35 62.05-24.05L62.05-24.05Q60.35-24.15 59.52-24.15 58.7-24.15 57-24.05L57-24.05ZM90.55-23.35L90.55-23.35Q88.8-24.2 87.2-24.2 85.6-24.2 85.05-24L85.05-24Q84.65-21.3 84.65-13.55 84.65-5.8 85.2-1.65L85.2-1.65Q87.45-1.4 89.35-0.9L89.35-0.9 89.2 0.35Q86.6 0 83.22 0 79.85 0 77.3 0.4L77.3 0.4 77.1-0.9Q78.1-1.2 80.55-1.65L80.55-1.65Q81-5.25 81-11.85L81-11.85 81-14.2Q81-17.7 80.45-24L80.45-24Q79.9-24.2 78.4-24.2 76.9-24.2 75.2-23.5L75.2-23.5Q74.7-21.95 74.5-19.35L74.5-19.35 73.2-19.35Q73.2-23.45 71.85-25.7L71.85-25.7 72.1-26.55Q75.95-26.05 82.9-26.05 89.85-26.05 94.1-26.6L94.1-26.6 94.4-25.65Q93.15-24.25 92.7-22.93 92.25-21.6 92.15-19.35L92.15-19.35 90.9-19.35Q90.55-21 90.55-23.35ZM100.14-12.35Q100.29-7.9 101.79-5.4 103.29-2.9 106.89-2.9 110.49-2.9 113.54-5.95L113.54-5.95 114.24-5.25Q110.89-1 106.19 0.6L106.19 0.6Q101.34 0.6 98.59-2.48 95.84-5.55 95.84-10.78 95.84-16 99.09-20.6 102.34-25.2 107.39-26.65L107.39-26.65Q111.04-26.65 115.64-25.9L115.64-25.9 115.59-24.8Q114.64-24.8 113.79-24.45L113.79-24.45Q112.84-22.2 112.54-19.1L112.54-19.1 111.29-19.1Q110.89-20.8 110.89-22.6L110.89-22.6Q108.99-23.55 106.39-23.55 103.79-23.55 102.09-22.15L102.09-22.15Q100.39-19.05 100.14-14.75L100.14-14.75Q102.24-14.4 104.64-14.4L104.64-14.4Q108.79-14.4 109.64-16.15L109.64-16.15 110.69-16Q110.24-14.5 110.24-13.05 110.24-11.6 110.59-9.5L110.59-9.5 109.39-9.3Q108.84-10.8 108.59-12.4L108.59-12.4Q106.59-12.6 104.62-12.6 102.64-12.6 100.14-12.35L100.14-12.35ZM118.14-24.95L118.14-25.95 129.64-26.3Q134.14-26.3 136.39-24.98 138.64-23.65 138.64-20.15L138.64-20.15Q138.64-17.75 137.17-15.9 135.69-14.05 133.29-13.15L133.29-13.15 138.89-1.7Q140.59-1.4 142.09-1L142.09-1 141.89 0.35Q139.79 0 137.17 0 134.54 0 133.04 0.25L133.04 0.25 132.84-0.55Q133.49-1.2 133.49-2.7L133.49-2.7Q133.49-5.75 129.99-12.5L129.99-12.5Q128.94-12.7 127.54-12.7L127.54-12.7 127.64-14.15 128.14-14.15Q134.04-14.15 134.04-19.55L134.04-19.55Q134.04-24.55 128.99-24.55L128.99-24.55Q127.29-24.55 125.94-24L125.94-24Q125.59-20.7 125.59-12.7 125.59-4.7 126.04-1.65L126.04-1.65Q128.24-1.4 130.14-0.9L130.14-0.9 129.99 0.35Q127.39 0 124.17 0 120.94 0 118.39 0.4L118.39 0.4 118.19-0.9Q119.59-1.35 121.34-1.65L121.34-1.65Q121.84-5.4 121.84-13.33 121.84-21.25 121.39-24.3L121.39-24.3Q119.44-24.95 118.14-24.95L118.14-24.95ZM155.44 0.6Q150.49 0.6 147.44-2.53 144.39-5.65 144.39-10.9 144.39-16.15 147.59-20.75 150.79-25.35 155.94-26.65L155.94-26.65Q161.09-26.65 163.79-23.73 166.49-20.8 166.49-15.4 166.49-10 163.56-5.65 160.64-1.3 155.44 0.6L155.44 0.6ZM154.59-23.6L154.59-23.6Q152.34-23.6 150.69-22.35L150.69-22.35Q148.64-18.85 148.64-13.55L148.64-13.55Q148.64-7.45 152.04-4.2L152.04-4.2Q153.84-2.45 156.29-2.45 158.74-2.45 160.24-3.75L160.24-3.75Q162.24-7.25 162.24-12.3 162.24-17.35 160.44-20.48 158.64-23.6 154.59-23.6ZM182.94-0.9L182.79 0.35Q180.19 0 176.96 0 173.74 0 171.19 0.4L171.19 0.4 170.99-0.9Q172.59-1.4 173.99-1.65L173.99-1.65Q174.44-5.55 174.44-11.85L174.44-11.85 174.44-14.2Q174.44-20.9 173.94-24.5L173.94-24.5Q172.59-24.65 170.69-25.3L170.69-25.3 170.84-26.6Q173.69-26.05 176.81-26.05 179.94-26.05 181.29-26.4L181.29-26.4 181.39-25.55Q180.04-25.2 180.04-24.4L180.04-24.4Q180.04-23.8 181.21-21.88 182.39-19.95 183.49-18.15L183.49-18.15Q186.79-12.9 191.29-5.25L191.29-5.25 191.44-5.35 191.44-11.45Q191.44-18.15 190.74-21.53 190.04-24.9 188.34-25.45L188.34-25.45 188.44-26.3Q189.74-26.05 192.34-26.05 194.94-26.05 197.69-26.6L197.69-26.6 197.84-25.3Q195.79-24.65 194.39-24.5L194.39-24.5Q193.89-20.5 193.89-14.2L193.89-14.2 193.89-11.85Q193.89-4.25 194.39-1.55L194.39-1.55Q196.49-1.2 197.74-0.75L197.74-0.75 197.59 0.55Q195.09 0 192.89 0 190.69 0 189.49 0.2L189.49 0.2Q189.49-0.9 187.96-3.5 186.44-6.1 185.19-8.1L185.19-8.1Q181.14-14.65 177.24-21.4L177.24-21.4 177.04-21.3 177.04-14.6Q177.04-4.65 178.54-1.65L178.54-1.65Q180.79-1.4 182.94-0.9L182.94-0.9ZM219.63-30.8L219.63-30.8Q219.08-27.05 219.08-16.8 219.08-6.55 219.73-1.75L219.73-1.75Q222.38-1.5 225.23-0.8L225.23-0.8 225.08 0.4Q221.38 0 217.06 0 212.73 0 210.08 0.4L210.08 0.4 209.88-0.85Q212.13-1.55 214.68-1.9L214.68-1.9Q215.23-6 215.23-14.8L215.23-14.8 215.23-17.75Q215.23-25.85 214.58-30.65L214.58-30.65Q212.03-31 209.78-31.7L209.78-31.7 209.98-32.95Q212.63-32.55 216.96-32.55 221.28-32.55 224.98-32.95L224.98-32.95 225.13-31.75Q222.28-31.05 219.63-30.8ZM227.73-24.95L227.73-25.95 239.23-26.3Q243.73-26.3 245.98-24.98 248.23-23.65 248.23-20.15L248.23-20.15Q248.23-17.75 246.75-15.9 245.28-14.05 242.88-13.15L242.88-13.15 248.48-1.7Q250.18-1.4 251.68-1L251.68-1 251.48 0.35Q249.38 0 246.75 0 244.13 0 242.63 0.25L242.63 0.25 242.43-0.55Q243.08-1.2 243.08-2.7L243.08-2.7Q243.08-5.75 239.58-12.5L239.58-12.5Q238.53-12.7 237.13-12.7L237.13-12.7 237.23-14.15 237.73-14.15Q243.63-14.15 243.63-19.55L243.63-19.55Q243.63-24.55 238.58-24.55L238.58-24.55Q236.88-24.55 235.53-24L235.53-24Q235.18-20.7 235.18-12.7 235.18-4.7 235.63-1.65L235.63-1.65Q237.83-1.4 239.73-0.9L239.73-0.9 239.58 0.35Q236.98 0 233.75 0 230.53 0 227.98 0.4L227.98 0.4 227.78-0.9Q229.18-1.35 230.93-1.65L230.93-1.65Q231.43-5.4 231.43-13.33 231.43-21.25 230.98-24.3L230.98-24.3Q229.03-24.95 227.73-24.95L227.73-24.95ZM254.03-24.95L254.03-25.95 265.53-26.3Q270.03-26.3 272.28-24.98 274.53-23.65 274.53-20.15L274.53-20.15Q274.53-17.75 273.05-15.9 271.58-14.05 269.18-13.15L269.18-13.15 274.78-1.7Q276.48-1.4 277.98-1L277.98-1 277.78 0.35Q275.68 0 273.05 0 270.43 0 268.93 0.25L268.93 0.25 268.73-0.55Q269.38-1.2 269.38-2.7L269.38-2.7Q269.38-5.75 265.88-12.5L265.88-12.5Q264.83-12.7 263.43-12.7L263.43-12.7 263.53-14.15 264.03-14.15Q269.93-14.15 269.93-19.55L269.93-19.55Q269.93-24.55 264.88-24.55L264.88-24.55Q263.18-24.55 261.83-24L261.83-24Q261.48-20.7 261.48-12.7 261.48-4.7 261.93-1.65L261.93-1.65Q264.13-1.4 266.03-0.9L266.03-0.9 265.88 0.35Q263.28 0 260.05 0 256.83 0 254.28 0.4L254.28 0.4 254.08-0.9Q255.48-1.35 257.23-1.65L257.23-1.65Q257.73-5.4 257.73-13.33 257.73-21.25 257.28-24.3L257.28-24.3Q255.33-24.95 254.03-24.95L254.03-24.95ZM288.17-24.4L288.17-24.4Q287.77-21.7 287.77-13.35 287.77-5 288.22-1.65L288.22-1.65Q290.47-1.4 292.37-0.9L292.37-0.9 292.22 0.35Q289.62 0 286.4 0 283.17 0 280.62 0.4L280.62 0.4 280.42-0.9Q281.82-1.35 283.57-1.65L283.57-1.65Q284.02-5.25 284.02-11.85L284.02-11.85 284.02-14.2Q284.02-20.8 283.52-24.4L283.52-24.4Q281.77-24.7 280.37-25.15L280.37-25.15 280.57-26.45Q283.12-26.05 286.35-26.05 289.57-26.05 292.17-26.4L292.17-26.4 292.32-25.15Q290.42-24.65 288.17-24.4ZM307.07-2.9L307.07-2.9Q309.22-2.9 311.32-4.15L311.32-4.15 311.07-9.5Q309.67-9.95 307.67-10.3L307.67-10.3 307.82-11.35Q309.02-11.25 309.57-11.25L309.57-11.25Q313.02-11.25 315.82-13.1L315.82-13.1 316.32-12.2Q315.72-11.65 315.22-11.05L315.22-11.05Q314.52-4.25 314.32 0.15L314.32 0.15 313.27 0.15Q312.87-1.7 312.07-2.9L312.07-2.9Q309.17-0.35 306.22 0.6L306.22 0.6Q301.37 0.6 298.62-2.48 295.87-5.55 295.87-10.78 295.87-16 299.12-20.6 302.37-25.2 307.42-26.65L307.42-26.65Q311.07-26.65 315.67-25.9L315.67-25.9 315.62-24.8Q314.67-24.8 313.82-24.45L313.82-24.45Q312.87-22.2 312.57-19.1L312.57-19.1 311.32-19.1Q310.92-20.8 310.92-22.6L310.92-22.6Q309.02-23.55 306.42-23.55 303.82-23.55 302.12-22.15L302.12-22.15Q300.12-18.5 300.12-13.53 300.12-8.55 301.6-5.73 303.07-2.9 307.07-2.9ZM323.47-25.3L323.62-26.6Q328.32-26.05 333.12-26.05 337.92-26.05 342.57-26.6L342.57-26.6 342.77-25.3Q341.27-24.7 339.67-24.4L339.67-24.4Q339.12-20.3 339.12-13 339.12-5.7 339.67-1.6L339.67-1.6Q340.67-1.45 343.37-0.85L343.37-0.85 343.17 0.4Q340.77 0 337.02 0 333.27 0 331.27 0.4L331.27 0.4 331.07-0.9Q332.77-1.45 334.92-1.7L334.92-1.7Q335.22-4.6 335.37-9.75L335.37-9.75Q333.02-10 330.67-10 328.32-10 326.57-9.75L326.57-9.75Q325.57-5.65 325.57-4.05L325.57-4.05Q325.57-1.6 327.32-0.6L327.32-0.6 327.12 0.25Q325.97 0 322.77 0 319.57 0 317.72 0.4L317.72 0.4 317.52-0.9Q318.72-1.35 320.82-1.7L320.82-1.7 327.32-24.5Q325.12-24.85 323.47-25.3L323.47-25.3ZM329.92-24.05L326.97-12.1Q328.92-11.8 331.29-11.8 333.67-11.8 335.37-12.1L335.37-12.1Q335.37-21.35 334.97-24.05L334.97-24.05Q333.27-24.15 332.44-24.15 331.62-24.15 329.92-24.05L329.92-24.05ZM363.47-23.35L363.47-23.35Q361.72-24.2 360.12-24.2 358.52-24.2 357.97-24L357.97-24Q357.57-21.3 357.57-13.55 357.57-5.8 358.12-1.65L358.12-1.65Q360.37-1.4 362.27-0.9L362.27-0.9 362.12 0.35Q359.52 0 356.14 0 352.77 0 350.22 0.4L350.22 0.4 350.02-0.9Q351.02-1.2 353.47-1.65L353.47-1.65Q353.92-5.25 353.92-11.85L353.92-11.85 353.92-14.2Q353.92-17.7 353.37-24L353.37-24Q352.82-24.2 351.32-24.2 349.82-24.2 348.12-23.5L348.12-23.5Q347.62-21.95 347.42-19.35L347.42-19.35 346.12-19.35Q346.12-23.45 344.77-25.7L344.77-25.7 345.02-26.55Q348.87-26.05 355.82-26.05 362.77-26.05 367.02-26.6L367.02-26.6 367.32-25.65Q366.07-24.25 365.62-22.93 365.17-21.6 365.07-19.35L365.07-19.35 363.82-19.35Q363.47-21 363.47-23.35ZM376.51-24.4L376.51-24.4Q376.11-21.7 376.11-13.35 376.11-5 376.56-1.65L376.56-1.65Q378.81-1.4 380.71-0.9L380.71-0.9 380.56 0.35Q377.96 0 374.74 0 371.51 0 368.96 0.4L368.96 0.4 368.76-0.9Q370.16-1.35 371.91-1.65L371.91-1.65Q372.36-5.25 372.36-11.85L372.36-11.85 372.36-14.2Q372.36-20.8 371.86-24.4L371.86-24.4Q370.11-24.7 368.71-25.15L368.71-25.15 368.91-26.45Q371.46-26.05 374.69-26.05 377.91-26.05 380.51-26.4L380.51-26.4 380.66-25.15Q378.76-24.65 376.51-24.4ZM395.11 0.6Q390.16 0.6 387.11-2.53 384.06-5.65 384.06-10.9 384.06-16.15 387.26-20.75 390.46-25.35 395.61-26.65L395.61-26.65Q400.76-26.65 403.46-23.73 406.16-20.8 406.16-15.4 406.16-10 403.24-5.65 400.31-1.3 395.11 0.6L395.11 0.6ZM394.26-23.6L394.26-23.6Q392.01-23.6 390.36-22.35L390.36-22.35Q388.31-18.85 388.31-13.55L388.31-13.55Q388.31-7.45 391.71-4.2L391.71-4.2Q393.51-2.45 395.96-2.45 398.41-2.45 399.91-3.75L399.91-3.75Q401.91-7.25 401.91-12.3 401.91-17.35 400.11-20.48 398.31-23.6 394.26-23.6ZM422.61-0.9L422.46 0.35Q419.86 0 416.63 0 413.41 0 410.86 0.4L410.86 0.4 410.66-0.9Q412.26-1.4 413.66-1.65L413.66-1.65Q414.11-5.55 414.11-11.85L414.11-11.85 414.11-14.2Q414.11-20.9 413.61-24.5L413.61-24.5Q412.26-24.65 410.36-25.3L410.36-25.3 410.51-26.6Q413.36-26.05 416.48-26.05 419.61-26.05 420.96-26.4L420.96-26.4 421.06-25.55Q419.71-25.2 419.71-24.4L419.71-24.4Q419.71-23.8 420.88-21.88 422.06-19.95 423.16-18.15L423.16-18.15Q426.46-12.9 430.96-5.25L430.96-5.25 431.11-5.35 431.11-11.45Q431.11-18.15 430.41-21.53 429.71-24.9 428.01-25.45L428.01-25.45 428.11-26.3Q429.41-26.05 432.01-26.05 434.61-26.05 437.36-26.6L437.36-26.6 437.51-25.3Q435.46-24.65 434.06-24.5L434.06-24.5Q433.56-20.5 433.56-14.2L433.56-14.2 433.56-11.85Q433.56-4.25 434.06-1.55L434.06-1.55Q436.16-1.2 437.41-0.75L437.41-0.75 437.26 0.55Q434.76 0 432.56 0 430.36 0 429.16 0.2L429.16 0.2Q429.16-0.9 427.63-3.5 426.11-6.1 424.86-8.1L424.86-8.1Q420.81-14.65 416.91-21.4L416.91-21.4 416.71-21.3 416.71-14.6Q416.71-4.65 418.21-1.65L418.21-1.65Q420.46-1.4 422.61-0.9L422.61-0.9ZM448.95-0.6L448.95-0.6Q448.95-5 450.88-8.2 452.8-11.4 454.9-11.4L454.9-11.4Q455.45-11.4 456-11.05L456-11.05 456.15-10.7Q455.5-9.45 455.35-7.55L455.35-7.55 455.05-7.35Q454.85-7.45 454.3-7.45 453.75-7.45 452.68-6.85 451.6-6.25 451-5.65L451-5.65Q450.65-4.95 450.65-4.05L450.65-4.05Q450.65-1.7 453.83-0.03 457 1.65 459.95 1.65L459.95 1.65Q466.1 1.65 466.1-5.35L466.1-5.35Q466.1-8 461.05-12L461.05-12Q458.95-13.7 456.85-15.4L456.85-15.4Q451.8-19.4 451.8-22.35L451.8-22.35Q451.8-25.85 454.95-28.88 458.1-31.9 462.1-33.3L462.1-33.3Q466.4-33.3 470.25-32.45L470.25-32.45 470.25-31.45Q467.65-29.05 467.35-24.05L467.35-24.05 466.1-24.05Q466.1-26.7 465.85-28.7L465.85-28.7Q463.7-29.7 461.18-29.7 458.65-29.7 456.9-28.63 455.15-27.55 455.15-25.9 455.15-24.25 456.63-22.58 458.1-20.9 460.2-19.33 462.3-17.75 464.38-16.13 466.45-14.5 467.93-12.63 469.4-10.75 469.4-9L469.4-9Q469.4-4 466.65-0.1 463.9 3.8 459.15 5.75L459.15 5.75Q452.9 5.1 449.15 2.25L449.15 2.25Q448.95 0.85 448.95-0.6ZM488.45-24.35L488.45-24.35Q488.45-25.15 487.1-25.45L487.1-25.45 487.3-26.3Q488.8-26.05 491.23-26.05 493.65-26.05 496.55-26.45L496.55-26.45 496.75-25.15Q495.45-24.7 493.45-24.4L493.45-24.4 485.15-11.9Q485.15-5.4 485.65-1.65L485.65-1.65Q487.85-1.4 489.75-0.9L489.75-0.9 489.6 0.35Q487 0 483.63 0 480.25 0 477.7 0.4L477.7 0.4 477.5-0.9Q478.45-1.2 480.9-1.65L480.9-1.65Q481.35-4.35 481.35-9.8L481.35-9.8 481.35-10.85Q475.55-22.55 474-24.45L474-24.45Q472.6-24.6 470.9-25.15L470.9-25.15 471.1-26.45Q473.1-26.05 476.85-26.05 480.6-26.05 483-26.45L483-26.45 483.2-25.2Q480.85-24.65 479.25-24.45L479.25-24.45Q480.95-19.25 484-13.5L484-13.5Q488.45-22.15 488.45-24.35ZM500.45-3.8Q502.75-2.85 505-2.85 507.25-2.85 508.6-3.9 509.95-4.95 509.95-6.9L509.95-6.9Q509.95-8.9 504.3-11.85L504.3-11.85Q502.15-12.95 500.37-14.53 498.6-16.1 498.6-17.65L498.6-17.65Q498.6-20.3 501.4-23 504.2-25.7 507.15-26.65L507.15-26.65Q510.85-26.65 513.85-25.9L513.85-25.9 513.85-25Q511.75-22.9 511.5-19.25L511.5-19.25 510.25-19.25Q510.25-20.65 510-22.75L510-22.75Q508.25-23.55 506.25-23.55 504.25-23.55 502.92-22.68 501.6-21.8 501.6-20.15L501.6-20.15Q501.6-19 503.37-17.65 505.15-16.3 507.25-15.25 509.35-14.2 511.12-12.65 512.9-11.1 512.9-9.55L512.9-9.55Q512.9-6.55 510.25-3.58 507.6-0.6 504.4 0.6L504.4 0.6Q501.25 0.6 498.5-0.15L498.5-0.15Q497.7 0.2 496.85 1L496.85 1 495.95 0.35Q498.75-2.7 499.05-7.2L499.05-7.2 500.3-7.2Q500.3-5.45 500.45-3.8L500.45-3.8ZM534.45-23.35L534.45-23.35Q532.7-24.2 531.1-24.2 529.5-24.2 528.95-24L528.95-24Q528.55-21.3 528.55-13.55 528.55-5.8 529.1-1.65L529.1-1.65Q531.35-1.4 533.25-0.9L533.25-0.9 533.1 0.35Q530.5 0 527.12 0 523.75 0 521.2 0.4L521.2 0.4 521-0.9Q522-1.2 524.45-1.65L524.45-1.65Q524.9-5.25 524.9-11.85L524.9-11.85 524.9-14.2Q524.9-17.7 524.35-24L524.35-24Q523.8-24.2 522.3-24.2 520.8-24.2 519.1-23.5L519.1-23.5Q518.6-21.95 518.4-19.35L518.4-19.35 517.1-19.35Q517.1-23.45 515.75-25.7L515.75-25.7 516-26.55Q519.85-26.05 526.8-26.05 533.75-26.05 538-26.6L538-26.6 538.3-25.65Q537.05-24.25 536.6-22.93 536.15-21.6 536.05-19.35L536.05-19.35 534.8-19.35Q534.45-21 534.45-23.35ZM544.04-12.35Q544.19-7.9 545.69-5.4 547.19-2.9 550.79-2.9 554.39-2.9 557.44-5.95L557.44-5.95 558.14-5.25Q554.79-1 550.09 0.6L550.09 0.6Q545.24 0.6 542.49-2.48 539.74-5.55 539.74-10.78 539.74-16 542.99-20.6 546.24-25.2 551.29-26.65L551.29-26.65Q554.94-26.65 559.54-25.9L559.54-25.9 559.49-24.8Q558.54-24.8 557.69-24.45L557.69-24.45Q556.74-22.2 556.44-19.1L556.44-19.1 555.19-19.1Q554.79-20.8 554.79-22.6L554.79-22.6Q552.89-23.55 550.29-23.55 547.69-23.55 545.99-22.15L545.99-22.15Q544.29-19.05 544.04-14.75L544.04-14.75Q546.14-14.4 548.54-14.4L548.54-14.4Q552.69-14.4 553.54-16.15L553.54-16.15 554.59-16Q554.14-14.5 554.14-13.05 554.14-11.6 554.49-9.5L554.49-9.5 553.29-9.3Q552.74-10.8 552.49-12.4L552.49-12.4Q550.49-12.6 548.52-12.6 546.54-12.6 544.04-12.35L544.04-12.35ZM574.99-1.5L574.99-2.8Q574.99-5.9 573.44-12.08 571.89-18.25 569.99-24.05L569.99-24.05 569.79-24 568.54-14.7Q567.74-8.95 567.74-4.35L567.74-4.35Q567.74-1.55 569.49-0.6L569.49-0.6 569.29 0.25Q567.79 0 565.36 0 562.94 0 560.04 0.4L560.04 0.4 559.84-0.9Q561.54-1.45 563.04-1.7L563.04-1.7 567.69-24.5Q565.09-24.95 563.84-25.3L563.84-25.3 563.99-26.6Q567.59-26.05 570.66-26.05 573.74-26.05 575.44-26.4L575.44-26.4 575.54-25.55Q574.19-25.2 574.19-24.4L574.19-24.4Q574.19-23.3 577.29-11.7L577.29-11.7 578.39-7.95 578.74-8.05Q578.74-9.35 583.29-24.35L583.29-24.35Q583.29-25.2 581.94-25.55L581.94-25.55 582.04-26.4Q583.74-26.05 586.86-26.05 589.99-26.05 593.54-26.6L593.54-26.6 593.69-25.3Q592.34-24.95 590.24-24.55L590.24-24.55Q590.09-23.35 590.09-21.03 590.09-18.7 590.74-11.5 591.39-4.3 591.94-1.6L591.94-1.6Q593.79-1.35 595.74-0.9L595.74-0.9 595.59 0.35Q592.99 0 589.81 0 586.64 0 584.09 0.4L584.09 0.4 583.89-0.9Q585.54-1.4 587.44-1.65L587.44-1.65Q587.29-13.45 585.84-23.9L585.84-23.9 585.69-23.9Q580.54-8.7 580.19-4.2L580.19-4.2Q579.14-3.85 577.74-2.93 576.34-2 575.59-1.1L575.59-1.1 574.99-1.5Z" opacity="1" transform="matrix(1,0,0,1,0,0)" fill="#556970" class="slogan-text-1" data-fill-palette-color="secondary" id="text-1"></path></svg></g></svg></g></svg></g></svg></g><g transform="matrix(1,0,0,1,434.5308246408177,0)"><svg viewBox="0 0 143.8968683582666 139.25503389509672" height="139.25503389509672" width="143.8968683582666"><g><svg xmlns="http://www.w3.org/2000/svg" xmlns:xlink="http://www.w3.org/1999/xlink" version="1.1" x="0" y="0" viewBox="1 3 62 60" style="enable-background:new 0 0 64 64;" xml:space="preserve" height="139.25503389509672" width="143.8968683582666" class="icon-icon-0" data-fill-palette-color="accent" id="icon-0"><g fill="#aba944" data-fill-palette-color="accent"><path d="M34 13V9H30V13A1 1 0 0 0 31 14H33A1 1 0 0 0 34 13" fill="#aba944" data-fill-palette-color="accent"></path><path d="M52 13V9H48V13A1 1 0 0 0 49 14H51A1 1 0 0 0 52 13" fill="#aba944" data-fill-palette-color="accent"></path><path d="M16 13V9H12V13A1 1 0 0 0 13 14H15A1 1 0 0 0 16 13" fill="#aba944" data-fill-palette-color="accent"></path><path d="M34 50C42 50 42 42 42 42 36.921 42 34.266 44.016 33 46.255V38A6 6 0 0 0 39 32H37A6 6 0 0 0 31.11 36.867 5.99 5.99 0 0 0 26 34H24A6 6 0 0 0 30 40H31V48.255C29.734 46.016 27.079 44 22 44 22 44 22 52 30 52H31V57H27V59H37V57H33V50z" fill="#aba944" data-fill-palette-color="accent"></path><path d="M14 50C22 50 22 42 22 42 16.921 42 14.266 44.016 13 46.255V38A6 6 0 0 0 19 32H17A6 6 0 0 0 11.11 36.867 5.99 5.99 0 0 0 6 34H4A6 6 0 0 0 10 40H11V48.255C9.734 46.016 7.079 44 2 44 2 44 2 52 10 52H11V57H7V59H17V57H13V50z" fill="#aba944" data-fill-palette-color="accent"></path><path d="M54 50C62 50 62 42 62 42 56.921 42 54.266 44.016 53 46.255V38A6 6 0 0 0 59 32H57A6 6 0 0 0 51.11 36.867 5.99 5.99 0 0 0 46 34H44A6 6 0 0 0 50 40H51V48.255C49.734 46.016 47.079 44 42 44 42 44 42 52 50 52H51V57H47V59H57V57H53V50z" fill="#aba944" data-fill-palette-color="accent"></path><rect x="3" y="3" width="58.001" height="4" fill="#aba944" data-fill-palette-color="accent"></rect><polygon points="27.219,15.375 23,20.65 18.781,15.375 17.219,16.625 21.72,22.25 19.219,25.375 20.781,26.625 23,23.85    25.219,26.625 26.781,25.375 24.28,22.25 28.781,16.625  " fill="#aba944" data-fill-palette-color="accent"></polygon><rect x="31" y="17" width="2" height="6" fill="#aba944" data-fill-palette-color="accent"></rect><polygon points="45.219,15.375 41,20.65 36.781,15.375 35.219,16.625 39.72,22.25 37.219,25.375 38.781,26.625 41,23.85    43.219,26.625 44.781,25.375 42.28,22.25 46.781,16.625  " fill="#aba944" data-fill-palette-color="accent"></polygon><rect x="57" y="14.597" transform="matrix(0.7809 -0.6246 0.6246 0.7809 -0.4105 40.8296)" width="2" height="12.806" fill="#aba944" data-fill-palette-color="accent"></rect><rect x="49" y="17" width="2" height="6" fill="#aba944" data-fill-palette-color="accent"></rect><rect x="-0.403" y="20" transform="matrix(0.6246 -0.7809 0.7809 0.6246 -14.1471 12.5682)" width="12.806" height="2" fill="#aba944" data-fill-palette-color="accent"></rect><rect x="13" y="17" width="2" height="6" fill="#aba944" data-fill-palette-color="accent"></rect><rect x="1" y="61" width="62" height="2" fill="#aba944" data-fill-palette-color="accent"></rect></g></svg></g></svg></g></svg></g><defs></defs></svg><rect width="395.52" height="95.22046000359089" fill="none" stroke="none" visibility="hidden"></rect></g></svg></g></svg>